<?xml version="1.0"?>
<svg xmlns="http://www.w3.org/2000/svg" xmlns:xlink="http://www.w3.org/1999/xlink" xmlns:svgjs="http://svgjs.com/svgjs" version="1.1" width="512" height="512" x="0" y="0" viewBox="0 0 512 512" style="enable-background:new 0 0 512 512" xml:space="preserve" class=""><g><g xmlns="http://www.w3.org/2000/svg"><path d="m63.635 75.302-63.535 63.535h63.535z" fill="#12416e" data-original="#000000" style="" class=""/><path d="m244.746.1-63.535 63.535h63.535z" fill="#12416e" data-original="#000000" style="" class=""/><path d="m274.746 0v93.635h-93.635v343.163h330.889v-436.798zm175.467 289.838h-207.314v-30h207.313v30zm0-63.734h-207.314v-30h207.313v30zm0-63.735h-207.314v-30h207.313v30z" fill="#12416e" data-original="#000000" style="" class=""/><path d="m151.111 466.798v-101.758h-89.323v-30h89.323v-33.734h-89.323v-30h89.323v-33.735h-89.323v-30h89.323v-132.369h-57.476v93.635h-93.635v343.163h330.889v-45.202z" fill="#12416e" data-original="#000000" style="" class=""/></g></g></svg>
